<?xml version="1.0" encoding="utf-8"?>
<!-- Generator: Adobe Illustrator 16.0.3, SVG Export Plug-In . SVG Version: 6.00 Build 0)  -->
<!DOCTYPE svg PUBLIC "-//W3C//DTD SVG 1.1//EN" "http://www.w3.org/Graphics/SVG/1.1/DTD/svg11.dtd">
<svg version="1.1" id="Layer_1" xmlns="http://www.w3.org/2000/svg" xmlns:xlink="http://www.w3.org/1999/xlink" x="0px" y="0px"
	 width="325px" height="155px" viewBox="0 0 325 155" enable-background="new 0 0 325 155" xml:space="preserve">
<g>
	<g>
		<g>
			<g>
				<path fill="#FFFFFF" d="M119.824,57.268c0,7.004-4.509,14.909-12.468,22.834c-9.391,9.349-16.896,5.332-19.322,2.57
					c-2.357-2.686-1.899-6.604-1.116-8.049c0.45-0.826,0.207-1.383-0.048-1.531c-0.623-0.366-1.434,0.464-1.709,0.751
					c-3.391,3.542-5.205,10.128,2.807,14.889c7.999,4.756,17.788,1.104,22.359-3.098c3.771-3.463,6.266-6.263,11.922-14.682
					c5.657-8.419,5.68-10.172,5.389-14.727c-0.459-7.186-6.668-12.146-9.968-15.514c-3.302-3.367-7.208-7.341-12.461-13.808
					c-5.253-6.465-7.009-10.809-7.905-13.387C96.394,10.896,96.444,10,95.973,10s-0.497,0.938-1.373,3.607
					c-1.171,3.566-4.88,9.384-8.181,13.163c-2.457,2.813-5.851,5.596-6.459,6.021c-0.607,0.426-1.627,1.001-0.613,2.061
					c1.156,1.208,5.115,2.626,7.674,0.269c1.889-1.739,5.322-5.718,7.369-8.575c0.455-0.635,0.842-1.214,1.127-1.702
					c0.17-0.291,0.51-0.372,0.678,0c0.67,1.49,2.659,5.186,8.208,10.479c7.34,7.005,9.575,9.323,10.909,11.033
					C117.468,49.117,119.824,52.418,119.824,57.268z"/>
				<path fill="#FFFFFF" d="M90.058,67.877c0.244-0.307,4.641-7.198,12.909-3.951c6.772,2.661,5.675,9.787,5.454,10.729
					c-0.186,0.795-1.099,1.381-1.727,0.314c-0.909-1.546-2.824-4.019-6.369-5.423c-3.301-1.308-6.281-0.699-8.918-0.071
					C89.402,69.951,89.075,69.105,90.058,67.877z"/>
			</g>
			<g>
				<path fill="#FFFFFF" d="M97.303,119.846c-7.005,0-14.909-4.51-22.835-12.471c-9.35-9.389-5.332-16.895-2.569-19.321
					c2.685-2.357,6.604-1.9,8.048-1.115c0.827,0.449,1.383,0.207,1.531-0.049c0.365-0.623-0.463-1.434-0.752-1.709
					c-3.541-3.39-10.126-5.205-14.889,2.807c-4.756,7.998-1.104,17.788,3.098,22.36c3.465,3.77,6.265,6.264,14.684,11.922
					c8.418,5.658,10.17,5.68,14.727,5.389c7.184-0.461,12.146-6.668,15.513-9.969c3.367-3.301,7.343-7.207,13.808-12.459
					c6.466-5.254,10.81-7.01,13.387-7.907c2.621-0.912,3.518-0.859,3.518-1.332c0-0.471-0.938-0.496-3.606-1.373
					c-3.567-1.17-9.384-4.879-13.163-8.18c-2.813-2.457-5.596-5.85-6.021-6.458s-1.002-1.627-2.061-0.613
					c-1.209,1.156-2.627,5.115-0.271,7.673c1.741,1.889,5.718,5.322,8.577,7.369c0.634,0.455,1.214,0.84,1.701,1.127
					c0.292,0.17,0.372,0.508,0,0.678c-1.49,0.67-5.186,2.658-10.479,8.208c-7.005,7.342-9.323,9.576-11.034,10.91
					C105.452,117.488,102.151,119.846,97.303,119.846z"/>
				<path fill="#FFFFFF" d="M86.692,90.076c0.307,0.246,7.199,4.643,3.951,12.911c-2.661,6.773-9.787,5.676-10.729,5.455
					c-0.795-0.186-1.381-1.098-0.313-1.727c1.545-0.908,4.017-2.824,5.422-6.37c1.309-3.301,0.698-6.281,0.071-8.918
					C84.619,89.421,85.465,89.093,86.692,90.076z"/>
			</g>
			<g>
				<g>
					<path fill="#FFFFFF" d="M34.745,96.896c0-7.004,4.509-14.91,12.469-22.834c9.391-9.35,16.896-5.332,19.32-2.569
						c2.359,2.686,1.9,6.604,1.117,8.049c-0.449,0.826-0.207,1.382,0.047,1.531c0.625,0.365,1.436-0.465,1.71-0.752
						c3.392-3.542,5.205-10.127-2.808-14.89c-7.998-4.756-17.787-1.103-22.359,3.098c-3.77,3.465-6.264,6.264-11.921,14.683
						c-5.657,8.417-5.68,10.171-5.389,14.726c0.46,7.186,6.669,12.147,9.969,15.514c3.301,3.367,7.206,7.342,12.46,13.809
						c5.253,6.465,7.009,10.809,7.904,13.387c0.912,2.621,0.861,3.518,1.332,3.518c0.473,0,0.498-0.939,1.373-3.607
						c1.171-3.566,4.881-9.385,8.182-13.164c2.457-2.813,5.85-5.596,6.458-6.021c0.608-0.424,1.626-1,0.614-2.061
						c-1.156-1.207-5.117-2.625-7.676-0.27c-1.889,1.74-5.32,5.719-7.368,8.578c-0.454,0.633-0.841,1.213-1.127,1.699
						c-0.171,0.293-0.509,0.373-0.677,0c-0.671-1.488-2.66-5.184-8.208-10.479c-7.341-7.006-9.576-9.322-10.911-11.033
						C37.102,105.047,34.745,101.746,34.745,96.896z"/>
					<path fill="#FFFFFF" d="M64.513,86.287c-0.244,0.307-4.641,7.197-12.91,3.951c-6.773-2.662-5.676-9.787-5.454-10.728
						c0.186-0.795,1.099-1.381,1.727-0.314c0.909,1.545,2.825,4.018,6.369,5.422c3.302,1.308,6.28,0.699,8.917,0.072
						C65.168,84.213,65.495,85.058,64.513,86.287z"/>
				</g>
				<g>
					<path fill="#FFFFFF" d="M57.267,34.318c7.006,0,14.91,4.51,22.835,12.47c9.351,9.39,5.331,16.896,2.57,19.32
						c-2.686,2.358-6.604,1.901-8.049,1.116c-0.827-0.448-1.384-0.206-1.531,0.048c-0.366,0.624,0.464,1.435,0.751,1.709
						c3.543,3.392,10.127,5.206,14.891-2.806c4.756-7.998,1.104-17.788-3.1-22.36c-3.463-3.77-6.264-6.264-14.683-11.921
						c-8.417-5.658-10.171-5.68-14.726-5.389c-7.186,0.46-12.146,6.668-15.514,9.969s-7.342,7.206-13.808,12.459
						c-6.466,5.254-10.81,7.01-13.386,7.906C10.897,57.751,10,57.699,10,58.172c0,0.471,0.938,0.497,3.606,1.373
						c3.566,1.17,9.385,4.879,13.164,8.18c2.813,2.456,5.596,5.85,6.021,6.459c0.426,0.607,1.002,1.626,2.061,0.612
						c1.208-1.156,2.626-5.114,0.27-7.674c-1.741-1.889-5.719-5.322-8.577-7.368c-0.634-0.455-1.214-0.841-1.7-1.127
						c-0.293-0.171-0.373-0.51,0-0.678c1.49-0.671,5.186-2.658,10.479-8.207c7.005-7.341,9.324-9.576,11.033-10.911
						C49.118,36.676,52.418,34.318,57.267,34.318z"/>
					<path fill="#FFFFFF" d="M67.877,64.088c-0.306-0.246-7.198-4.643-3.951-12.911c2.661-6.773,9.786-5.675,10.729-5.455
						c0.793,0.187,1.381,1.098,0.313,1.727c-1.545,0.909-4.018,2.825-5.422,6.369c-1.309,3.303-0.699,6.281-0.072,8.919
						C69.95,64.741,69.104,65.069,67.877,64.088z"/>
				</g>
			</g>
		</g>
		<g>
			<path fill="#FFFFFF" d="M145.465,111.676c-0.346-0.727-1.117-0.842-1.504-0.842c-0.383,0-1.162,0.115-1.499,0.842l-11.418,23.795
				c-0.229,0.506-0.037,1.043,0.463,1.324c0.494,0.227,1.033,0,1.271-0.465l3.771-7.832h14.815l3.785,7.832
				c0.231,0.465,0.77,0.691,1.275,0.465c0.494-0.281,0.694-0.818,0.461-1.324L145.465,111.676z M137.438,126.646l6.522-13.498
				l6.518,13.498H137.438z"/>
			<path fill="#FFFFFF" d="M174.177,134.83h-10.225v-22.883c0-0.537-0.427-0.93-0.967-0.93s-0.955,0.43-0.955,0.963v23.73
				c0,0.539,0.415,0.961,0.955,0.961h11.191c0.543,0,0.963-0.371,0.963-0.926C175.14,135.215,174.72,134.83,174.177,134.83z"/>
			<path fill="#FFFFFF" d="M193.081,134.83h-10.214v-22.883c0-0.537-0.432-0.93-0.967-0.93c-0.54,0-0.966,0.43-0.966,0.963v23.73
				c0,0.539,0.426,0.961,0.966,0.961h11.181c0.547,0,0.97-0.371,0.97-0.926C194.051,135.215,193.628,134.83,193.081,134.83z"/>
			<path fill="#FFFFFF" d="M200.837,111.018c-0.538,0-0.957,0.43-0.957,0.963v23.922c0,0.535,0.419,0.971,0.957,0.971
				c0.555,0,0.967-0.436,0.967-0.971V111.98C201.804,111.447,201.392,111.018,200.837,111.018z"/>
			<path fill="#FFFFFF" d="M222.174,111.676c-0.345-0.727-1.121-0.842-1.502-0.842c-0.383,0-1.159,0.115-1.505,0.842l-11.421,23.795
				c-0.226,0.506-0.033,1.043,0.461,1.324c0.51,0.227,1.046,0,1.282-0.465l3.77-7.832h14.817l3.775,7.832
				c0.248,0.465,0.782,0.691,1.28,0.465c0.504-0.281,0.698-0.818,0.461-1.324L222.174,111.676z M214.151,126.646l6.521-13.498
				l6.52,13.498H214.151z"/>
			<path fill="#FFFFFF" d="M263.189,111.018c-0.533,0-0.963,0.43-0.963,0.963v21.605l-22.374-22.063
				c-0.385-0.389-0.581-0.506-0.965-0.506c-0.539,0-0.966,0.43-0.966,0.963v23.922c0,0.535,0.427,0.971,0.966,0.971
				c0.538,0,0.965-0.436,0.965-0.971v-21.6l22.374,22.064c0.385,0.395,0.574,0.506,0.963,0.506c0.548,0,0.963-0.436,0.963-0.971
				V111.98C264.152,111.447,263.737,111.018,263.189,111.018z"/>
			<path fill="#FFFFFF" d="M281.912,112.752c3.086,0,5.896,1.275,7.904,3.285c0.381,0.389,1.004,0.389,1.395,0
				c0.386-0.377,0.386-0.963,0-1.344c-2.361-2.359-5.68-3.859-9.299-3.859c-7.251,0-13.117,5.859-13.117,13.109
				c0,7.258,5.866,13.117,13.117,13.117c3.619,0,6.905-1.463,9.299-3.846c0.386-0.402,0.386-0.98,0-1.363
				c-0.391-0.383-1.014-0.383-1.395,0c-2.044,2.041-4.818,3.273-7.904,3.273c-6.176,0-11.188-5.006-11.188-11.182
				C270.725,117.771,275.736,112.752,281.912,112.752z"/>
			<path fill="#FFFFFF" d="M309.035,134.83h-10.225v-10.887h6.368c0.546,0,0.968-0.381,0.968-0.918c0-0.549-0.422-0.93-0.968-0.93
				h-6.368v-9.031h10.225c0.548,0,0.965-0.381,0.965-0.916c0-0.551-0.417-0.938-0.965-0.938h-11.182
				c-0.535,0-0.961,0.432-0.961,0.965v23.535c0,0.539,0.426,0.961,0.961,0.961h11.182c0.548,0,0.965-0.371,0.965-0.926
				C310,135.215,309.583,134.83,309.035,134.83z"/>
			<path fill="#FFFFFF" d="M215.374,48.196c-2.524-4.392-7.382-4.667-11.782-4.667c-1.912,0-6.202-0.032-9.138,1.954
				c-5.995,4.053-6.334,17.632-6.334,22.683c0,8.08,1.56,21.679,10.602,22.267c0.181,0.016,1.648,0.193,3.233,0.199
				c1.636,0.004,3.305-0.098,3.479-0.102c11.662-0.521,13.247-13.513,13.247-22.365C218.681,56.286,217.178,51.335,215.374,48.196z
				 M209.462,81.557c-0.706,2.482-2.537,6.626-6.913,6.626c-4.35-0.078-5.983-5.124-6.553-10.652
				c-0.327-3.185-0.488-6.381-0.541-9.365c-0.13-7.363,0.408-13.426,0.783-14.772c0.794-2.844,1.164-6.134,5.206-6.98
				c0.55-0.115,1.159-0.204,1.817-0.232c1.95-0.08,3.488,0.24,4.589,1.233c1.389,1.255,2.091,2.627,2.45,5.061
				c0.229,1.546,1.196,8.091,1.003,15.691C211.191,72.529,210.7,77.24,209.462,81.557z"/>
			<path fill="#FFFFFF" d="M181.46,91.402c0-0.539-0.005-33.099-0.005-43.76c-0.009-0.105,0-0.675,0-0.833
				c0-1.559,0.215-2.639-0.312-3.041c-0.688-0.526-3.129,0.93-3.129,0.93s-1.528,0.699-2.77,1.344
				c-1.199,0.623-1.11,1.168-1.11,2.48c0,7.788,0.083,11.995,0.051,16.22c-0.035,4.5,0.099,6.414,0,13.786
				c-0.009,0.572-0.094,1.359-0.269,2.146c-0.176,0.788-0.865,2.219-2.628,4.066c-1.161,1.21-3.076,3.507-5.865,3.507
				c-0.36,0-0.713-0.033-1.065-0.102c-1.665-0.32-3.32-2.375-3.759-6.446c-0.45-4.192-0.218-4.899-0.218-7.771
				c0-1.643,0.097-3.754,0.218-8.411c0.035-1.3,0.134-3.37,0.248-5.176c0.576-9.076,0.97-13.573-2.197-15.664
				c-1.093-0.721-2.854-1.199-4.896-1.109c-2.095,0.093-5.174,0.593-6.719,1.296c-0.478,0.218-0.797,0.46-0.919,0.705
				c-0.454,0.911,0.484,1.614,1.751,1.521c0.751-0.056,1.451-0.391,2.067-0.675c0.771-0.367,1.748-0.747,2.701-0.407
				c2.455,1.035,1.61,4.038,1.525,8.068c-0.019,0.89-0.094,1.802-0.094,2.706c0,0-1.166,22.907,0,27.139
				c1.044,3.799,4.589,5.329,6.924,6.178c1.303,0.492,2.827,0.633,4.126,0.633c4.327,0,7.282-2.881,9.208-4.998
				c0,0.143-0.008,0.291,0,0.436c0.013,0.9,0,3.225,0,3.225c0.007,0.941-0.042,1.889,0,2.818c0.163,3.582,0.287,6.791-1.618,8.5
				c-1.229,1.1-3.684,2.061-6.177,1.069c-2.31-0.922-2.099-3.225-3.939-3.586c-0.911-0.18-1.647,0.412-1.758,1.049
				c-0.249,1.465,2.058,3.934,5.371,4.53c0.968,0.172,2.735,0.246,3.637,0.246c4.144,0,8.686-0.594,10.383-3.043
				C182.036,98.371,181.46,96.333,181.46,91.402z"/>
			<path fill="#FFFFFF" d="M253.233,69.928c-0.07-1.411,0.21-1.832-0.682-2.114c-0.289-0.099-4.751,1.205-4.872,1.231
				c-2.097,0.546-1.852,0.722-1.551,5.382c0.156,2.407,0.335,5.143-0.02,6.981c-0.585,2.943-4.224,6.363-7.998,6.156
				c-3.177-0.211-5.638-4.645-6.097-9.487c-0.775-8.165-0.572-10.006-0.252-17.425c0.408-9.438,1.351-14.375,7.312-14.687
				c4.091-0.215,6.796,1.209,7.471,5.418c0.102,0.676,0.069,3.01,0.06,3.836c-0.052,1.695-0.114,3.241,0.805,3.794
				c0.797,0.479,4.734-1.2,5.383-1.705c1.152-0.91,0.895-2.919,0.47-5.379c-0.06-0.319-0.112-0.609-0.14-0.849
				c-0.841-5.649-5.747-7.674-13.674-7.674c-2.13,0-3.172,0.114-5.125,0.6c-9.388,2.334-9.875,12.398-9.875,22.494
				c0,10.17,0.884,20.422,7.168,23.067c2.193,0.922,3.443,1.111,5.037,1.111c3.25,0,4.571-0.584,5.748-0.977
				c1.637-0.545,2.955-1.465,4.002-2.137c-0.067,0.996-0.004,4.113-0.004,4.646c0,3.926,0.288,6.791-1.618,8.5
				c-1.228,1.1-3.685,2.061-6.178,1.069c-2.311-0.922-2.098-3.225-3.939-3.586c-0.911-0.18-1.647,0.412-1.758,1.049
				c-0.248,1.465,2.058,3.934,5.371,4.53c0.968,0.172,2.736,0.246,3.637,0.246c4.145,0,8.494-0.594,10.192-3.043
				c1.812-2.605,1.238-4.641,1.237-9.566C253.344,91.41,253.25,70.219,253.233,69.928z"/>
			<path fill="#FFFFFF" d="M293.576,86.791c-0.575,0.041-1.101,0.209-1.648,0.555c-0.844,0.533-1.747,1.346-3.239,0.455
				c-1.614-0.965-1.57-5.174-1.473-8.231c0.022-0.909,0.394-26.236-0.023-29.609c-0.497-3.976-4.426-6.45-9.843-6.45
				c-1.313,0-4.575,0.198-6.001,0.598c-2.719,0.767-6.791,2.253-8.056,7.188l-0.115,0.504c-0.648,3.132-1.23,6.417,0.123,7.139
				c1.007,0.537,4.824-1.128,5.51-1.636c1.103-0.82,1.037-2.603,0.899-4.302c-0.035-0.714-0.031-1.374-0.031-1.834
				c0-5.12,7.028-5.27,9.019-4.311c1.988,0.959,2.031,4.346,2.11,9.294c0.043,2.31,0.194,4.933-0.596,6.889
				c-0.444,0.973-2.312,1.473-3.581,1.763c-6.421,1.45-16.187,2.386-17.636,10.335c-0.789,4.326-0.763,10.519,2.884,13.585
				c1.233,1.041,2.715,1.615,4.408,1.719c5.59,0.318,11.244-2.617,13.115-5.193c0.455-0.645,0.886-1.251,1.369-1.821
				c0,0.04,0,0.638,0,0.679c0.004,2.472,0.02,4.726,2.587,5.968c0.847,0.412,2.026,0.646,3.308,0.646
				c1.424,0,3.937-0.176,5.824-0.797c1.431-0.473,2.603-1.027,2.431-2.223C294.82,87.003,294.088,86.751,293.576,86.791z
				 M280.051,78.83c-0.294,2.264-3.809,8.193-8.107,8.193c-5.659,0-5.979-7.589-4.979-12.673c0.851-4.334,3.8-5.371,8.875-6.578
				c1.492-0.359,3.024-0.725,4.552-1.191l0.029,0.355C280.413,70.327,280.831,72.822,280.051,78.83z"/>
		</g>
	</g>
</g>
</svg>
