<?xml version="1.0" encoding="utf-8"?>
<!-- Generator: Adobe Illustrator 16.0.3, SVG Export Plug-In . SVG Version: 6.00 Build 0)  -->
<!DOCTYPE svg PUBLIC "-//W3C//DTD SVG 1.1//EN" "http://www.w3.org/Graphics/SVG/1.1/DTD/svg11.dtd">
<svg version="1.1" id="Layer_1" xmlns="http://www.w3.org/2000/svg" xmlns:xlink="http://www.w3.org/1999/xlink" x="0px" y="0px"
	 width="317.75px" height="165.751px" viewBox="0 0 317.75 165.751" enable-background="new 0 0 317.75 165.751"
	 xml:space="preserve">
<g>
	<g>
		<g>
			<path fill="#FFFFFF" d="M127.454,157.897c0,0.293-0.231,0.504-0.525,0.504s-0.525-0.232-0.525-0.525v-12.912
				c0-0.295,0.231-0.525,0.525-0.525h6.089c0.294,0,0.525,0.209,0.525,0.504c0,0.293-0.231,0.504-0.525,0.504h-5.564v4.912h3.464
				c0.294,0,0.525,0.211,0.525,0.504c0,0.295-0.231,0.504-0.525,0.504h-3.464V157.897z"/>
			<path fill="#FFFFFF" d="M146.353,144.227c3.947,0,7.139,3.191,7.139,7.139s-3.191,7.139-7.139,7.139s-7.139-3.191-7.139-7.139
				S142.406,144.227,146.353,144.227z M146.353,157.456c3.359,0,6.089-2.73,6.089-6.09s-2.729-6.088-6.089-6.088
				s-6.089,2.729-6.089,6.088S142.994,157.456,146.353,157.456z"/>
			<path fill="#FFFFFF" d="M174.702,151.366c0,3.947-3.191,7.139-7.139,7.139s-7.139-3.191-7.139-7.139v-6.508
				c0-0.295,0.231-0.525,0.525-0.525s0.525,0.23,0.525,0.525v6.508c0,3.359,2.73,6.09,6.089,6.09s6.088-2.73,6.088-6.09v-6.508
				c0-0.295,0.231-0.525,0.525-0.525s0.525,0.23,0.525,0.525V151.366z"/>
			<path fill="#FFFFFF" d="M183.524,146.118v11.758c0,0.293-0.231,0.525-0.525,0.525s-0.525-0.232-0.525-0.525v-13.018
				c0-0.295,0.231-0.525,0.525-0.525c0.21,0,0.314,0.063,0.525,0.273l12.178,12.01v-11.758c0-0.295,0.23-0.525,0.524-0.525
				s0.524,0.23,0.524,0.525v13.018c0,0.293-0.23,0.525-0.524,0.525c-0.21,0-0.315-0.064-0.524-0.273L183.524,146.118z"/>
			<path fill="#FFFFFF" d="M205.468,158.295c-0.294,0-0.524-0.23-0.524-0.525v-12.807c0-0.295,0.23-0.525,0.524-0.525h6.614
				c3.947,0,7.139,2.98,7.139,6.928s-3.191,6.93-7.139,6.93H205.468z M205.993,157.288h6.09c3.359,0,6.088-2.563,6.088-5.922
				s-2.729-5.92-6.088-5.92h-6.09V157.288z"/>
			<path fill="#FFFFFF" d="M224.747,157.645l6.215-12.955c0.189-0.398,0.609-0.463,0.819-0.463s0.63,0.064,0.819,0.463l6.215,12.955
				c0.125,0.271,0.021,0.566-0.252,0.713c-0.273,0.127-0.567,0-0.693-0.252l-2.058-4.262h-8.063l-2.058,4.262
				c-0.126,0.252-0.42,0.379-0.693,0.252C224.726,158.211,224.622,157.917,224.747,157.645z M231.781,145.487l-3.548,7.35h7.096
				L231.781,145.487z"/>
			<path fill="#FFFFFF" d="M246.543,145.446h-2.52c-0.293,0-0.524-0.211-0.524-0.504c0-0.295,0.231-0.504,0.524-0.504h6.09
				c0.293,0,0.524,0.209,0.524,0.504c0,0.293-0.231,0.504-0.524,0.504h-2.52v12.43c0,0.293-0.231,0.525-0.525,0.525
				s-0.525-0.232-0.525-0.525V145.446z"/>
			<path fill="#FFFFFF" d="M259.039,157.875c0,0.293-0.231,0.525-0.524,0.525c-0.295,0-0.525-0.232-0.525-0.525v-13.018
				c0-0.295,0.23-0.525,0.525-0.525c0.293,0,0.524,0.23,0.524,0.525V157.875z"/>
			<path fill="#FFFFFF" d="M273.528,144.227c3.947,0,7.139,3.191,7.139,7.139s-3.191,7.139-7.139,7.139s-7.139-3.191-7.139-7.139
				S269.581,144.227,273.528,144.227z M273.528,157.456c3.359,0,6.089-2.73,6.089-6.09s-2.729-6.088-6.089-6.088
				s-6.089,2.729-6.089,6.088S270.168,157.456,273.528,157.456z"/>
			<path fill="#FFFFFF" d="M289.069,146.118v11.758c0,0.293-0.23,0.525-0.525,0.525c-0.293,0-0.524-0.232-0.524-0.525v-13.018
				c0-0.295,0.231-0.525,0.524-0.525c0.211,0,0.315,0.063,0.525,0.273l12.178,12.01v-11.758c0-0.295,0.23-0.525,0.525-0.525
				c0.293,0,0.524,0.23,0.524,0.525v13.018c0,0.293-0.231,0.525-0.524,0.525c-0.211,0-0.315-0.064-0.525-0.273L289.069,146.118z"/>
		</g>
	</g>
</g>
<g>
	<g>
		<g>
			<path fill="#FFFFFF" d="M114.969,54.966c0,6.918-4.455,14.729-12.315,22.557c-9.278,9.236-16.69,5.268-19.087,2.537
				c-2.329-2.65-1.877-6.521-1.104-7.949c0.445-0.816,0.205-1.365-0.047-1.512c-0.616-0.364-1.416,0.458-1.689,0.74
				c-3.35,3.5-5.139,10.006,2.772,14.709c7.903,4.698,17.573,1.09,22.089-3.06c3.724-3.424,6.188-6.188,11.778-14.504
				c5.586-8.316,5.607-10.047,5.32-14.546c-0.452-7.1-6.586-12-9.847-15.325c-3.261-3.327-7.119-7.252-12.307-13.642
				c-5.19-6.386-6.927-10.678-7.811-13.224c-0.9-2.59-0.848-3.474-1.315-3.474c-0.466,0-0.489,0.927-1.356,3.564
				c-1.156,3.521-4.821,9.267-8.08,13.002c-2.426,2.778-5.78,5.527-6.382,5.947c-0.601,0.42-1.606,0.988-0.604,2.037
				c1.142,1.192,5.054,2.592,7.579,0.267c1.867-1.723,5.258-5.649,7.28-8.475c0.449-0.627,0.83-1.198,1.114-1.68
				c0.167-0.289,0.502-0.366,0.669,0c0.662,1.473,2.625,5.123,8.108,10.353c7.249,6.919,9.458,9.208,10.777,10.898
				C112.639,46.917,114.969,50.177,114.969,54.966z"/>
			<path fill="#FFFFFF" d="M85.565,65.449c0.241-0.306,4.583-7.112,12.751-3.904c6.689,2.63,5.604,9.668,5.389,10.599
				c-0.182,0.783-1.087,1.363-1.705,0.308c-0.898-1.524-2.792-3.966-6.292-5.356c-3.261-1.291-6.207-0.688-8.812-0.069
				C84.918,67.497,84.595,66.661,85.565,65.449z"/>
		</g>
		<g>
			<path fill="#FFFFFF" d="M92.723,116.784c-6.922,0-14.729-4.455-22.559-12.319c-9.237-9.274-5.268-16.689-2.538-19.087
				c2.652-2.327,6.525-1.876,7.951-1.103c0.817,0.446,1.366,0.207,1.514-0.045c0.358-0.616-0.459-1.418-0.745-1.688
				c-3.497-3.35-10.001-5.141-14.709,2.77c-4.696,7.904-1.089,17.572,3.062,22.088c3.424,3.727,6.188,6.19,14.505,11.779
				c8.315,5.59,10.047,5.608,14.548,5.322c7.095-0.454,11.999-6.587,15.324-9.847c3.326-3.26,7.252-7.119,13.641-12.307
				c6.385-5.191,10.677-6.925,13.225-7.813c2.588-0.898,3.473-0.849,3.473-1.314c0-0.465-0.927-0.488-3.563-1.354
				c-3.524-1.158-9.271-4.821-13.005-8.082c-2.777-2.426-5.524-5.78-5.947-6.38c-0.42-0.602-0.989-1.607-2.035-0.605
				c-1.193,1.142-2.595,5.053-0.266,7.58c1.719,1.862,5.648,5.256,8.471,7.28c0.628,0.448,1.198,0.826,1.682,1.112
				c0.288,0.168,0.366,0.503,0,0.669c-1.472,0.663-5.124,2.627-10.354,8.107c-6.918,7.254-9.209,9.461-10.897,10.775
				C100.771,114.454,97.509,116.784,92.723,116.784z"/>
			<path fill="#FFFFFF" d="M82.24,87.375c0.304,0.245,7.111,4.586,3.901,12.754c-2.628,6.69-9.665,5.607-10.596,5.39
				c-0.785-0.185-1.363-1.085-0.31-1.705c1.526-0.897,3.969-2.793,5.354-6.293c1.293-3.261,0.691-6.205,0.071-8.811
				C80.191,86.729,81.028,86.409,82.24,87.375z"/>
		</g>
		<g>
			<g>
				<path fill="#FFFFFF" d="M30.926,94.114c0-6.919,4.454-14.729,12.318-22.559c9.274-9.233,16.688-5.267,19.083-2.538
					c2.331,2.654,1.879,6.524,1.104,7.953c-0.442,0.816-0.204,1.363,0.046,1.511c0.618,0.361,1.419-0.459,1.69-0.741
					c3.35-3.5,5.14-10.005-2.773-14.709c-7.9-4.697-17.57-1.09-22.088,3.061c-3.724,3.421-6.188,6.186-11.776,14.501
					c-5.587,8.318-5.611,10.05-5.321,14.549c0.453,7.101,6.586,12,9.847,15.326c3.26,3.325,7.117,7.252,12.308,13.64
					c5.189,6.388,6.924,10.679,7.809,13.225c0.899,2.589,0.85,3.472,1.315,3.472c0.468,0,0.492-0.926,1.357-3.561
					c1.155-3.523,4.82-9.271,8.081-13.003c2.427-2.779,5.779-5.531,6.379-5.949s1.605-0.988,0.606-2.036
					c-1.142-1.191-5.054-2.592-7.58-0.266c-1.865,1.718-5.256,5.649-7.281,8.473c-0.446,0.627-0.83,1.198-1.113,1.68
					c-0.168,0.289-0.501,0.369-0.667,0c-0.663-1.47-2.628-5.119-8.108-10.353c-7.252-6.92-9.46-9.206-10.778-10.897
					C33.252,102.164,30.926,98.905,30.926,94.114z"/>
				<path fill="#FFFFFF" d="M60.331,83.632c-0.243,0.304-4.586,7.111-12.754,3.905c-6.69-2.63-5.606-9.669-5.388-10.6
					c0.184-0.782,1.084-1.36,1.705-0.312c0.898,1.527,2.792,3.97,6.293,5.357c3.261,1.292,6.203,0.691,8.809,0.071
					C60.977,81.585,61.302,82.417,60.331,83.632z"/>
			</g>
			<g>
				<path fill="#FFFFFF" d="M53.173,32.295c6.92,0,14.728,4.458,22.558,12.318c9.234,9.276,5.265,16.689,2.538,19.087
					c-2.652,2.329-6.524,1.877-7.952,1.102c-0.816-0.441-1.365-0.205-1.511,0.048c-0.361,0.617,0.458,1.418,0.741,1.688
					c3.499,3.351,10.004,5.143,14.709-2.769c4.696-7.902,1.089-17.573-3.06-22.091c-3.424-3.724-6.19-6.187-14.505-11.776
					c-8.316-5.588-10.05-5.609-14.547-5.323c-7.099,0.456-12,6.587-15.325,9.849c-3.326,3.261-7.252,7.119-13.641,12.307
					c-6.386,5.192-10.678,6.925-13.225,7.81c-2.588,0.901-3.474,0.852-3.474,1.315c0,0.466,0.926,0.491,3.564,1.357
					c3.521,1.156,9.27,4.818,13.003,8.081c2.777,2.428,5.525,5.777,5.948,6.379c0.419,0.601,0.988,1.608,2.034,0.606
					c1.192-1.144,2.596-5.053,0.267-7.58c-1.719-1.866-5.647-5.26-8.471-7.28c-0.628-0.45-1.201-0.83-1.683-1.113
					c-0.289-0.167-0.366-0.501,0-0.67c1.473-0.66,5.123-2.627,10.354-8.106c6.919-7.252,9.209-9.459,10.898-10.779
					C45.122,34.627,48.384,32.295,53.173,32.295z"/>
				<path fill="#FFFFFF" d="M63.654,61.704c-0.305-0.243-7.109-4.586-3.901-12.752c2.627-6.692,9.665-5.607,10.597-5.39
					c0.783,0.183,1.363,1.082,0.308,1.704c-1.525,0.897-3.968,2.793-5.354,6.294c-1.292,3.261-0.692,6.203-0.072,8.809
					C65.703,62.349,64.866,62.675,63.654,61.704z"/>
			</g>
		</g>
	</g>
	<g>
		<path fill="#FFFFFF" d="M140.298,108.713c-0.344-0.719-1.105-0.832-1.485-0.832c-0.379,0-1.148,0.113-1.481,0.832l-11.279,23.506
			c-0.225,0.497-0.036,1.031,0.455,1.308c0.491,0.225,1.025,0,1.259-0.46l3.722-7.736h14.638l3.737,7.736
			c0.229,0.46,0.761,0.685,1.261,0.46c0.49-0.276,0.687-0.811,0.458-1.308L140.298,108.713z M132.369,123.502l6.443-13.337
			l6.438,13.337H132.369z"/>
		<path fill="#FFFFFF" d="M168.661,131.586h-10.098v-22.604c0-0.531-0.425-0.92-0.956-0.92c-0.534,0-0.946,0.424-0.946,0.951v23.441
			c0,0.533,0.412,0.949,0.946,0.949h11.054c0.535,0,0.953-0.365,0.953-0.914C169.614,131.966,169.196,131.586,168.661,131.586z"/>
		<path fill="#FFFFFF" d="M187.333,131.586h-10.087v-22.604c0-0.531-0.43-0.92-0.957-0.92c-0.533,0-0.953,0.424-0.953,0.951v23.441
			c0,0.533,0.42,0.949,0.953,0.949h11.044c0.54,0,0.959-0.365,0.959-0.914C188.292,131.966,187.874,131.586,187.333,131.586z"/>
		<path fill="#FFFFFF" d="M194.998,108.063c-0.533,0-0.945,0.424-0.945,0.951v23.628c0,0.53,0.412,0.961,0.945,0.961
			c0.547,0,0.956-0.431,0.956-0.961v-23.628C195.954,108.487,195.544,108.063,194.998,108.063z"/>
		<path fill="#FFFFFF" d="M216.074,108.713c-0.341-0.719-1.106-0.832-1.483-0.832c-0.382,0-1.146,0.113-1.486,0.832l-11.284,23.506
			c-0.223,0.497-0.031,1.031,0.458,1.308c0.502,0.225,1.035,0,1.267-0.46l3.722-7.736h14.638l3.732,7.736
			c0.241,0.46,0.771,0.685,1.264,0.46c0.494-0.276,0.688-0.811,0.455-1.308L216.074,108.713z M208.148,123.502l6.442-13.337
			l6.442,13.337H208.148z"/>
		<path fill="#FFFFFF" d="M256.59,108.063c-0.525,0-0.953,0.424-0.953,0.951v21.342l-22.1-21.793c-0.381-0.385-0.576-0.5-0.953-0.5
			c-0.533,0-0.957,0.424-0.957,0.951v23.628c0,0.53,0.424,0.961,0.957,0.961c0.531,0,0.953-0.431,0.953-0.961V111.31l22.1,21.793
			c0.381,0.389,0.57,0.5,0.953,0.5c0.541,0,0.951-0.431,0.951-0.961v-23.628C257.542,108.487,257.131,108.063,256.59,108.063z"/>
		<path fill="#FFFFFF" d="M275.084,109.776c3.049,0,5.822,1.259,7.811,3.246c0.373,0.383,0.988,0.383,1.373,0
			c0.383-0.375,0.383-0.952,0-1.326c-2.33-2.333-5.609-3.814-9.184-3.814c-7.162,0-12.957,5.788-12.957,12.95
			c0,7.171,5.795,12.959,12.957,12.959c3.574,0,6.822-1.447,9.184-3.801c0.383-0.396,0.383-0.969,0-1.348
			c-0.385-0.379-1-0.379-1.373,0c-2.021,2.019-4.762,3.234-7.811,3.234c-6.102,0-11.053-4.944-11.053-11.045
			C264.032,114.735,268.983,109.776,275.084,109.776z"/>
		<path fill="#FFFFFF" d="M301.879,131.586h-10.102v-10.755h6.289c0.541,0,0.957-0.378,0.957-0.906c0-0.542-0.416-0.919-0.957-0.919
			h-6.289v-8.922h10.102c0.539,0,0.949-0.376,0.949-0.906c0-0.54-0.41-0.926-0.949-0.926h-11.049c-0.527,0-0.947,0.429-0.947,0.953
			v23.25c0,0.533,0.42,0.949,0.947,0.949h11.049c0.539,0,0.949-0.365,0.949-0.914C302.829,131.966,302.418,131.586,301.879,131.586z
			"/>
		<path fill="#FFFFFF" d="M209.354,46.006c-2.49-4.338-7.287-4.61-11.637-4.61c-1.89,0-6.126-0.033-9.026,1.929
			c-5.923,4.005-6.255,17.418-6.255,22.408c0,7.982,1.54,21.415,10.473,21.996c0.179,0.013,1.628,0.191,3.19,0.196
			c1.618,0.004,3.266-0.098,3.44-0.1c11.517-0.515,13.085-13.349,13.085-22.093C212.625,53.998,211.138,49.106,209.354,46.006z
			 M203.517,78.96c-0.698,2.452-2.508,6.546-6.828,6.546c-4.296-0.079-5.914-5.061-6.476-10.522
			c-0.321-3.146-0.481-6.304-0.533-9.251c-0.128-7.274,0.404-13.263,0.774-14.592c0.783-2.812,1.149-6.061,5.141-6.897
			c0.543-0.112,1.148-0.201,1.796-0.227c1.928-0.082,3.445,0.233,4.534,1.214c1.371,1.243,2.064,2.598,2.42,5.002
			c0.225,1.525,1.183,7.993,0.989,15.5C205.224,70.043,204.741,74.697,203.517,78.96z"/>
		<path fill="#FFFFFF" d="M175.852,88.687c0-0.533-0.002-32.697-0.002-43.228c-0.01-0.104,0-0.667,0-0.825
			c0-1.539,0.213-2.605-0.309-3.004c-0.68-0.519-3.09,0.919-3.09,0.919s-1.512,0.691-2.736,1.328
			c-1.188,0.613-1.098,1.153-1.098,2.449c0,7.694,0.082,11.85,0.051,16.022c-0.035,4.443,0.1,6.335,0,13.618
			c-0.008,0.566-0.094,1.346-0.266,2.121c-0.174,0.779-0.854,2.192-2.596,4.016c-1.146,1.197-3.039,3.467-5.795,3.467
			c-0.354,0-0.704-0.034-1.051-0.101c-1.645-0.316-3.28-2.346-3.714-6.368c-0.444-4.142-0.215-4.837-0.215-7.679
			c0-1.621,0.096-3.706,0.215-8.307c0.035-1.286,0.132-3.33,0.247-5.112c0.569-8.966,0.957-13.409-2.172-15.474
			c-1.077-0.714-2.82-1.186-4.837-1.096c-2.069,0.092-5.11,0.585-6.637,1.279c-0.473,0.215-0.789,0.453-0.908,0.696
			c-0.447,0.9,0.479,1.596,1.73,1.501c0.741-0.055,1.435-0.385,2.04-0.665c0.766-0.362,1.73-0.736,2.669-0.403
			c2.428,1.023,1.59,3.989,1.51,7.973c-0.019,0.879-0.095,1.778-0.095,2.673c0,0-1.151,22.627,0,26.806
			c1.032,3.756,4.535,5.265,6.838,6.104c1.289,0.487,2.794,0.626,4.078,0.626c4.274,0,7.194-2.848,9.096-4.938
			c0,0.143-0.01,0.288,0,0.431c0.012,0.887,0,3.185,0,3.185c0.008,0.932-0.043,1.867,0,2.786c0.162,3.539,0.281,6.706-1.598,8.396
			c-1.215,1.088-3.641,2.034-6.1,1.056c-2.286-0.913-2.076-3.185-3.896-3.544c-0.897-0.178-1.626,0.409-1.734,1.038
			c-0.247,1.446,2.031,3.886,5.306,4.472c0.956,0.17,2.701,0.246,3.593,0.246c4.092,0,8.58-0.588,10.256-3.009
			C176.424,95.574,175.852,93.558,175.852,88.687z"/>
		<path fill="#FFFFFF" d="M246.756,67.474c-0.068-1.396,0.205-1.811-0.676-2.089c-0.283-0.099-4.691,1.188-4.814,1.215
			c-2.066,0.538-1.826,0.715-1.529,5.317c0.154,2.378,0.33,5.081-0.02,6.896c-0.576,2.908-4.174,6.286-7.9,6.08
			c-3.138-0.206-5.569-4.586-6.024-9.37c-0.763-8.065-0.561-9.883-0.246-17.213c0.399-9.322,1.335-14.2,7.222-14.507
			c4.041-0.211,6.711,1.194,7.379,5.351c0.104,0.67,0.068,2.972,0.059,3.792c-0.051,1.674-0.113,3.202,0.799,3.745
			c0.783,0.474,4.674-1.185,5.314-1.682c1.139-0.899,0.885-2.886,0.463-5.314c-0.057-0.314-0.111-0.605-0.135-0.84
			c-0.832-5.58-5.678-7.579-13.512-7.579c-2.103,0-3.13,0.113-5.06,0.592c-9.273,2.306-9.754,12.248-9.754,22.221
			c0,10.044,0.872,20.174,7.078,22.786c2.169,0.91,3.402,1.096,4.979,1.096c3.208,0,4.513-0.575,5.677-0.962
			c1.617-0.539,2.92-1.45,3.951-2.111c-0.064,0.984-0.002,4.062-0.002,4.591c0,3.878,0.285,6.706-1.598,8.396
			c-1.213,1.088-3.643,2.034-6.104,1.056c-2.28-0.913-2.074-3.185-3.891-3.544c-0.902-0.178-1.629,0.409-1.737,1.038
			c-0.246,1.446,2.03,3.886,5.306,4.472c0.957,0.17,2.703,0.246,3.592,0.246c4.098,0,8.393-0.588,10.068-3.009
			c1.791-2.568,1.223-4.582,1.223-9.449C246.864,88.693,246.774,67.763,246.756,67.474z"/>
		<path fill="#FFFFFF" d="M286.606,84.13c-0.568,0.039-1.088,0.205-1.627,0.548c-0.836,0.526-1.727,1.328-3.199,0.449
			c-1.596-0.954-1.553-5.11-1.455-8.129c0.023-0.9,0.389-25.917-0.021-29.249c-0.494-3.93-4.373-6.373-9.725-6.373
			c-1.301,0-4.521,0.196-5.928,0.59c-2.688,0.758-6.709,2.225-7.963,7.101l-0.111,0.496c-0.639,3.097-1.215,6.342,0.121,7.055
			c0.994,0.528,4.766-1.115,5.443-1.616c1.094-0.811,1.025-2.57,0.891-4.25c-0.033-0.705-0.033-1.356-0.033-1.813
			c0-5.058,6.945-5.205,8.91-4.256c1.963,0.943,2.01,4.29,2.086,9.181c0.041,2.279,0.191,4.872-0.59,6.805
			c-0.439,0.959-2.285,1.455-3.537,1.742c-6.342,1.431-15.992,2.354-17.422,10.208c-0.779,4.273-0.752,10.39,2.848,13.42
			c1.221,1.029,2.684,1.598,4.357,1.698c5.52,0.315,11.104-2.585,12.955-5.13c0.447-0.637,0.873-1.237,1.352-1.799
			c0,0.039,0,0.628,0,0.669c0.004,2.445,0.021,4.67,2.555,5.896c0.838,0.407,2.004,0.64,3.268,0.64c1.408,0,3.891-0.174,5.754-0.788
			c1.414-0.466,2.57-1.015,2.402-2.194C287.836,84.339,287.116,84.093,286.606,84.13z M273.249,76.266
			c-0.295,2.237-3.764,8.094-8.012,8.094c-5.59,0-5.904-7.497-4.92-12.518c0.84-4.281,3.754-5.307,8.77-6.499
			c1.475-0.356,2.986-0.715,4.492-1.178l0.031,0.351C273.6,67.867,274.02,70.333,273.249,76.266z"/>
	</g>
</g>
</svg>
