<?xml version="1.0" encoding="utf-8"?>
<!-- Generator: Adobe Illustrator 16.2.1, SVG Export Plug-In . SVG Version: 6.00 Build 0)  -->
<!DOCTYPE svg PUBLIC "-//W3C//DTD SVG 1.1//EN" "http://www.w3.org/Graphics/SVG/1.1/DTD/svg11.dtd">
<svg version="1.1" id="Layer_1" xmlns="http://www.w3.org/2000/svg" xmlns:xlink="http://www.w3.org/1999/xlink" x="0px" y="0px"
	 width="192px" height="192px" viewBox="0 0 192 192" enable-background="new 0 0 192 192" xml:space="preserve">
<path fill="#FFFFFF" d="M97.332,5.499c-48.049,0-87,38.951-87,87c0,48.049,38.951,87,87,87c48.047,0,87-38.951,87-87
	C184.332,44.45,145.379,5.499,97.332,5.499z M155.738,121.442c-1.373,5.173-5.421,9.247-10.562,10.632
	c-9.315,2.512-46.677,2.512-46.677,2.512s-37.359,0-46.677-2.512c-5.14-1.385-9.189-5.459-10.563-10.632
	c-2.496-9.378-2.496-28.943-2.496-28.943s0-19.566,2.496-28.942c1.374-5.174,5.423-9.249,10.563-10.631
	c9.317-2.513,46.677-2.513,46.677-2.513s37.361,0,46.677,2.513c5.142,1.382,9.189,5.457,10.562,10.631
	c2.497,9.376,2.497,28.942,2.497,28.942S158.235,112.064,155.738,121.442z"/>
<polygon fill="#FFFFFF" points="86.28,110.263 117.506,92.5 86.28,74.735 "/>
<path fill="none" d="M145.176,52.925c-9.315-2.513-46.677-2.513-46.677-2.513s-37.359,0-46.677,2.513
	c-5.14,1.382-9.189,5.457-10.563,10.631c-2.496,9.376-2.496,28.942-2.496,28.942s0,19.565,2.496,28.943
	c1.374,5.173,5.423,9.247,10.563,10.632c9.317,2.512,46.677,2.512,46.677,2.512s37.361,0,46.677-2.512
	c5.142-1.385,9.189-5.459,10.562-10.632c2.497-9.378,2.497-28.943,2.497-28.943s0-19.566-2.497-28.942
	C154.365,58.382,150.317,54.308,145.176,52.925z"/>
<path fill="none" d="M33.333,27.333v130.333h130.333V27.333H33.333z M155.738,121.442c-1.373,5.173-5.421,9.247-10.562,10.632
	c-9.315,2.512-46.677,2.512-46.677,2.512s-37.359,0-46.677-2.512c-5.14-1.385-9.189-5.459-10.563-10.632
	c-2.496-9.378-2.496-28.943-2.496-28.943s0-19.566,2.496-28.942c1.374-5.174,5.423-9.249,10.563-10.631
	c9.317-2.513,46.677-2.513,46.677-2.513s37.361,0,46.677,2.513c5.142,1.382,9.189,5.457,10.562,10.631
	c2.497,9.376,2.497,28.942,2.497,28.942S158.235,112.064,155.738,121.442z"/>
</svg>
